<svg width="800px" height="400px" viewBox="0 5 46 25" id="Layer_1" version="1.1" xml:space="preserve" xmlns="http://www.w3.org/2000/svg" xmlns:xlink="http://www.w3.org/1999/xlink" fill="#000000">
  <g id="SVGRepo_bgCarrier" stroke-width="0"/>
  <g id="SVGRepo_tracerCarrier" stroke-linecap="round" stroke-linejoin="round"/>
  
  <g id="SVGRepo_iconCarrier">
    <style type="text/css">
      .st0{fill:#255ed0;} .st1{fill:#292929;} .st2{fill:#FFFFFF;}
    </style>
    <g>
      <g>
        <path class="st0" d="M44.7,16l-5.2-8.9c-0.4-0.6-1.1-1-1.8-1h-35C1.8,6.1,1,6.9,1,7.8v18.5c0,1,0.8,1.7,1.7,1.7h35 c0.7,0,1.4-0.4,1.8-1l5.2-8.9C45.1,17.5,45.1,16.7,44.7,16z M38.6,19.1c-1.1,0-2-0.9-2-2s0.9-2,2-2c1.1,0,2,0.9,2,2 S39.7,19.1,38.6,19.1z"/>
      </g>
      <path class="st2" d="M7.8,14.6v1.9H11v1.1H7.8v2.9H6.6v-7.1h4.7l0,1.1H7.8z"/>
      <path class="st2" d="M18.4,15.8c0,1.2-0.5,1.9-1.5,2.2l1.9,2.6h-1.5l-1.7-2.4H14v2.4h-1.2v-7.1h2.6c1.1,0,1.9,0.2,2.3,0.5 C18.2,14.4,18.4,15,18.4,15.8z M16.8,16.8c0.2-0.2,0.4-0.5,0.4-1c0-0.5-0.1-0.8-0.4-1c-0.3-0.2-0.7-0.3-1.3-0.3H14v2.5h1.5 C16.1,17.1,16.6,17,16.8,16.8z"/>
      <path class="st2" d="M25.1,13.5v1.1h-3.8v1.9h3.4v1.1h-3.4v1.9h3.9v1.1h-5.1v-7.1H25.1z"/>
      <path class="st2" d="M31.8,13.5v1.1H28v1.9h3.4v1.1H28v1.9h3.9v1.1h-5.1v-7.1H31.8z"/>
    </g>
  </g>
</svg>